<svg xmlns="http://www.w3.org/2000/svg" width="2560" height="1700" preserveAspectRatio="none"><g mask="url(&quot;#SvgjsMask1132&quot;)" fill="none"><path fill="url(#SvgjsRadialGradient1133)" d="M0 0h2560v1700H0z"/><path d="M0 0h807.67L0 170.16z" fill="rgba(255, 255, 255, .1)"/><path d="M0 170.16L807.67 0h8.72L0 518.53z" fill="rgba(255, 255, 255, .075)"/><path d="M0 518.53L816.39 0h206.28L0 1057.3z" fill="rgba(255, 255, 255, .05)"/><path d="M0 1057.3L1022.67 0h195.78L0 1364.67z" fill="rgba(255, 255, 255, .025)"/><path d="M2560 1700h-255.12L2560 1203.35z" fill="rgba(0, 0, 0, .1)"/><path d="M2560 1203.35L2304.88 1700h-529.54L2560 831.51z" fill="rgba(0, 0, 0, .075)"/><path d="M2560 831.51L1775.34 1700h-667.93L2560 654.58z" fill="rgba(0, 0, 0, .05)"/><path d="M2560 654.58L1107.41 1700H631.77L2560 512.25z" fill="rgba(0, 0, 0, .025)"/></g><defs><radialGradient cx="0%" cy="50%" r="2697.42" gradientUnits="userSpaceOnUse" id="SvgjsRadialGradient1133"><stop stop-color="rgba(30, 30, 54, 1)" offset=".01"/><stop stop-color="rgba(30, 30, 54, 1)" offset="1"/></radialGradient><mask id="SvgjsMask1132"><path fill="#fff" d="M0 0h2560v1700H0z"/></mask></defs></svg>