<svg width="239" height="108" xmlns="http://www.w3.org/2000/svg"><g fill="none" fill-rule="evenodd"><text transform="translate(72 20)" fill="#FFF" fill-rule="nonzero" font-family="TimesNewRomanPSMT, Times New Roman" font-size="50"><tspan x="0" y="45">CPSP</tspan></text><g fill="#F1E9E9" fill-rule="nonzero" font-family="TrebuchetMS, Trebuchet MS" font-size="15"><text transform="translate(72 76)"><tspan x="0" y="14">CANDIAN PAEDIATRIC</tspan></text><text transform="translate(72 76)"><tspan x="0" y="29">SURVEILLANCE PROGRAM</tspan></text></g><g transform="translate(2 2)"><path stroke="#F1E9E9" stroke-width="3" stroke-linejoin="round" d="M10.872 47L0 32.568l13.98 2.743V25.144l14.893 10.928-4.531-26.88 9.872 5.413L41.567 0l7.824 14.605L59 9.192l-2.723 12.34"/><ellipse fill="#F1E9E9" fill-rule="nonzero" cx="43" cy="27.5" rx="9" ry="9.5"/><path d="M65 37c-2.997 3.541-5.992 5.312-8.988 5.312H41.754C35.428 42.605 31.51 44.834 30 49c3.981-1.484 6.915-2.226 8.8-2.226h17.212c3.468-.248 5.838-1.71 7.11-4.383C64.395 39.717 65.021 37.92 65 37zM29.903 49c-2.4 7.506-1.575 13.058 2.476 16.655 4.05 3.598 10.906 9.681 20.568 18.251 6.313 9.868 3.073 14.107-9.72 12.716C24.038 94.535 17 97.762 17 104c4.825-1.618 12.745-2.428 23.76-2.428 12.187 0 17.918-5.485 19.094-11.925.865-4.74-2.031-10.542-10.902-16.408C35.001 64.014 28.652 55.934 29.903 49z" fill="#F1E9E9" fill-rule="nonzero"/><path d="M48.429 71L42 65.834c.732-1.313 1.21-2.305 1.435-2.977.825-2.467.736-5.662-.39-10.857 5.2 8.01 6.994 14.343 5.384 19zM38 72l6 5.034C38.478 81.61 35.717 87.597 35.717 95c-4.153-5.618-4.826-10.85-2.019-15.696C36.506 74.46 37.94 72.024 38 72z" fill="#F1E9E9" fill-rule="nonzero"/></g></g></svg>